<?xml version="1.0" encoding="UTF-8" standalone="no"?>
<!-- Created with Inkscape (http://www.inkscape.org/) -->

<svg
   xmlns:dc="http://purl.org/dc/elements/1.1/"
   xmlns:cc="http://creativecommons.org/ns#"
   xmlns:rdf="http://www.w3.org/1999/02/22-rdf-syntax-ns#"
   xmlns:svg="http://www.w3.org/2000/svg"
   xmlns="http://www.w3.org/2000/svg"
   xmlns:xlink="http://www.w3.org/1999/xlink"
   xmlns:sodipodi="http://sodipodi.sourceforge.net/DTD/sodipodi-0.dtd"
   xmlns:inkscape="http://www.inkscape.org/namespaces/inkscape"
   version="1.1"
   id="svg3776"
   width="124.16"
   height="149.75999"
   viewBox="0 0 124.16 149.75999"
   sodipodi:docname="Donkephant.svg"
   inkscape:version="0.92.4 5da689c313, 2019-01-14">
  <metadata
     id="metadata3782">
    <rdf:RDF>
      <cc:Work
         rdf:about="">
        <dc:format>image/svg+xml</dc:format>
        <dc:type
           rdf:resource="http://purl.org/dc/dcmitype/StillImage" />
        <dc:title></dc:title>
      </cc:Work>
    </rdf:RDF>
  </metadata>
  <defs
     id="defs3780" />
  <sodipodi:namedview
     pagecolor="#ffffff"
     bordercolor="#666666"
     borderopacity="1"
     objecttolerance="10"
     gridtolerance="10"
     guidetolerance="10"
     inkscape:pageopacity="0"
     inkscape:pageshadow="2"
     inkscape:window-width="2880"
     inkscape:window-height="1892"
     id="namedview3778"
     showgrid="false"
     inkscape:zoom="10.884082"
     inkscape:cx="137.30825"
     inkscape:cy="85.062078"
     inkscape:window-x="0"
     inkscape:window-y="0"
     inkscape:window-maximized="1"
     inkscape:current-layer="svg3776" />
  <image
     sodipodi:absref="/home/cameronbrill/Pictures/Donkephant.png"
     xlink:href="Donkephant.png"
     y="0"
     x="0"
     id="image3784"
     preserveAspectRatio="none"
     height="149.75999"
     width="124.16" />
  <g
     id="g3786">
    <path
       style="fill:#fefefe;stroke-width:0.31999999"
       d="M 0,74.879995 V 0 h 62.08 62.08 V 74.879995 149.75999 H 62.08 0 Z"
       id="path3802"
       inkscape:connector-curvature="0" />
    <path
       style="fill:#fa9e9e;stroke-width:0.31999999"
       d="m 38.166592,149.5243 c -1.709344,-0.11982 -2.646944,-0.82683 -2.646339,-1.99551 6.4e-4,-0.93168 1.854,-4.34989 4.730054,-8.72304 2.664714,-4.0518 2.917466,-4.57548 3.243344,-6.72 0.194381,-1.27917 0.741178,-3.83776 1.215107,-5.68576 0.749252,-2.92157 0.876599,-4.13247 0.975959,-9.28 0.19376,-10.03798 -0.186931,-12.94838 -3.299514,-25.224892 C 40.897341,86.02674 39.68,80.949652 39.68,80.612676 c 0,-0.595795 0.463024,-0.612681 16.8,-0.612681 h 16.8 l -0.0044,7.439999 c -0.0026,4.092 -0.08905,7.755776 -0.192544,8.141721 -0.209757,0.782211 -0.66655,0.914656 -4.283088,1.241869 -2.17775,0.197037 -2.493728,0.316496 -3.412125,1.290006 -1.35088,1.431943 -4.024435,6.95712 -5.093577,10.5264 -0.683133,2.2806 -0.894298,3.75571 -1.014608,7.08764 -0.14889,4.12349 -0.128032,4.28986 1.043158,8.32 0.657299,2.2618 1.436602,4.588 1.731779,5.16933 0.295178,0.58134 1.609642,1.88196 2.921031,2.89026 1.515318,1.16511 2.422483,2.09863 2.488992,2.5613 0.140867,0.97996 -1.782906,3.47845 -6.065485,7.87753 l -3.440333,3.53394 -1.717635,-0.91536 c -2.440272,-1.30047 -2.877687,-1.12347 -3.31896,1.34295 -0.198723,1.11073 -0.523085,2.18127 -0.7208,2.37899 -0.70985,0.70985 -8.170029,1.04883 -14.034829,0.63773 z m 46.523005,-0.66951 C 84.206275,148.32073 84.16,146.0761 84.16,123.166 84.16,101.69649 84.092493,97.966016 83.693664,97.396608 82.975587,96.371414 80.747434,95.90496 77.29056,96.056154 L 74.24,96.189574 v -8.094789 -8.09479 h 19.36 19.36 l 0.002,10.639999 c 0.002,11.076816 0.17484,12.849796 1.28817,13.203156 1.82693,0.57985 2.68588,-0.72455 2.63009,-3.994014 -0.0224,-1.314973 0.11201,-2.574973 0.29876,-2.8 0.45359,-0.546544 6.05445,-0.567888 6.59719,-0.02515 0.48423,0.484221 0.49929,3.836354 0.0273,6.080244 -0.83983,3.99291 -3.45059,7.31926 -6.58219,8.3863 -1.80672,0.61562 -4.62247,0.63786 -6.27151,0.0495 -4.14258,-1.4779 -6.14847,-4.96584 -7.60415,-13.222456 -0.65358,-3.707113 -1.12893,-5.060367 -2.04438,-5.820127 -0.40074,-0.332586 -0.59723,-0.336093 -0.9811,-0.0175 -0.419852,0.348444 -0.479999,3.843788 -0.479999,27.893733 v 27.49536 l -0.785456,0.78545 c -0.782707,0.78258 -0.809475,0.78546 -7.310534,0.78546 -5.914867,0 -6.574467,-0.0547 -7.054544,-0.5852 z M 37.181437,73.134162 C 34.05913,66.627096 28.692,60.799996 25.82089,60.799996 c -0.498668,0 -1.866518,0.949053 -3.932748,2.728646 -5.121881,4.411357 -9.388447,6.188169 -13.3336726,5.552809 C 4.8429104,68.483723 2.484484,67.447397 1.007502,65.765208 0.09656449,64.727708 0,64.416584 0,62.519129 0,59.60581 1.0731775,54.632518 2.5348574,50.77216 3.9520186,47.029376 4.0395936,46.56112 4.4836483,40.352173 4.8283789,35.53202 4.7712938,35.742039 7.3500653,29.806509 7.9741933,28.36996 8.3025958,27.174218 8.1929683,26.737427 8.0941872,26.343851 7.1319421,24.882922 6.0546461,23.490917 2.7614967,19.235744 2.72,19.114651 2.72,13.759999 c 0,-3.9080781 0.1125726,-4.9978799 0.7136512,-6.9087735 0.9432,-2.9985333 1.7625037,-4.0371582 3.0833517,-3.9087406 1.1121689,0.108129 0.9747059,-0.1226605 5.1129841,8.5842981 2.134691,4.491403 3.517093,6.393216 4.647141,6.393216 1.041606,0 1.381774,-1.09713 1.629262,-5.254789 L 18.137077,8.7897994 19.963696,5.2187846 C 22.077258,1.0868012 22.852616,0 23.68694,0 c 1.244379,0 2.816215,3.1490169 4.919894,9.8565184 0.698196,2.2261726 0.83336,3.2629496 0.834362,6.3999996 0.0017,5.414263 -0.01523,5.393577 5.983934,7.300401 2.601942,0.827024 5.730102,1.915757 6.951462,2.419405 3.437792,1.417632 7.788154,4.530082 14.423408,10.319178 7.166518,6.252607 8.744291,7.188825 12.513795,7.425417 C 73.705958,43.996592 73.28,43.4248 73.28,49.045002 c 0,4.385078 -0.0827,5.121151 -0.826278,7.353903 l -0.826279,2.481091 h -3.715229 -3.715228 l 2.861507,2.083946 c 1.57383,1.146169 2.909443,2.225983 2.968035,2.399583 0.05859,0.1736 -0.352317,1.692919 -0.913123,3.376266 -0.560807,1.683344 -0.967498,3.112777 -0.903757,3.176518 0.06374,0.06374 0.978646,-0.532822 2.033123,-1.325699 C 73.550912,66.103173 73.28,65.871426 73.28,71.188738 v 4.651257 H 55.879894 38.479789 Z m 11.521529,-5.089085 c 1.354634,-0.992793 2.629911,-1.805081 2.833952,-1.805081 0.204042,0 0.895706,0.404137 1.537034,0.898083 0.641325,0.493945 1.914877,1.436947 2.830112,2.095555 l 1.664064,1.197475 -1.104064,-3.278432 C 55.856829,65.349541 55.36,63.715733 55.36,63.521996 c 0,-0.193741 1.306237,-1.281447 2.902749,-2.417126 l 2.902749,-2.064874 -3.679677,-0.08996 -3.679677,-0.08995 -1.022886,-3.110045 c -0.562586,-1.710525 -1.120144,-3.218022 -1.239021,-3.349996 -0.118877,-0.131972 -0.677523,1.267462 -1.24144,3.109855 l -1.025303,3.349808 -3.713699,0.09014 -3.713699,0.09014 2.657286,1.92 c 1.461511,1.056 2.785063,2.007805 2.941229,2.115123 0.156167,0.107318 -0.221225,1.808105 -0.838649,3.779523 -0.617424,1.971421 -0.953245,3.451901 -0.746276,3.289958 0.206973,-0.161942 1.48465,-1.106729 2.83928,-2.099523 z M 74.24,71.012741 v -4.827254 l 1.68,1.212896 c 0.924,0.667091 2.148,1.560444 2.72,1.985232 0.572,0.424787 1.037456,0.719251 1.034349,0.654361 -0.0032,-0.06489 -0.435111,-1.478873 -0.96,-3.142185 C 78.189456,65.232479 77.76,63.698677 77.76,63.487346 c 0,-0.211334 1.31273,-1.329728 2.917181,-2.485318 L 83.594358,58.90095 79.825722,58.81047 76.057085,58.71999 75.148541,56.014464 C 74.31903,53.544284 74.24,52.91103 74.24,48.73447 v -4.574473 h 7.398931 c 8.475235,0 12.623824,0.475427 17.063722,1.955498 7.209407,2.403302 11.431867,6.813679 13.341337,13.935077 0.52295,1.950352 0.70857,3.806925 0.83316,8.333321 0.0882,3.203142 0.0681,6.191142 -0.0445,6.64 l -0.20483,0.816102 H 93.433904 74.24 Z m 19.909818,-3.29273 2.46982,-1.81015 2.808784,2.059795 c 1.544838,1.13289 2.838488,2.030096 2.874788,1.993795 0.0363,-0.0363 -0.35907,-1.42182 -0.87861,-3.078934 -0.51953,-1.657113 -0.9446,-3.18584 -0.9446,-3.397171 0,-0.211334 1.31273,-1.329728 2.91718,-2.485318 l 2.91718,-2.101078 -3.78578,-0.09048 -3.785777,-0.09048 -0.971401,-3.11439 c -0.534272,-1.712915 -1.048781,-3.116915 -1.143354,-3.12 -0.09457,-0.0032 -0.643952,1.43439 -1.220838,3.19439 l -1.048887,3.2 H 90.63249 86.906656 l 2.946672,2.135165 C 91.473997,62.189503 92.8,63.314489 92.8,63.515132 c 0,0.200646 -0.432,1.642832 -0.96,3.204864 -1.071094,3.168719 -1.145542,3.58406 -0.56,3.124265 0.22,-0.172758 1.511418,-1.128669 2.869818,-2.12425 z"
       id="path3800"
       inkscape:connector-curvature="0" />
    <path
       style="fill:#9898d4;stroke-width:0.31999999"
       d="m 36.8,149.20675 c -1.224086,-0.46597 -1.269158,-2.05119 -0.123328,-4.3374 0.46017,-0.91815 2.121533,-3.63168 3.691914,-6.03007 l 2.855241,-4.36072 0.644295,-3.79928 c 0.354361,-2.08961 0.961001,-4.80729 1.348086,-6.03929 0.648314,-2.06342 0.697706,-2.79496 0.626598,-9.28 C 45.732797,105.32707 45.49175,103.61485 42.5712,92.121037 41.15704,86.555613 40,81.551614 40,81.001038 v -1.001043 h 16.48 16.48 v 8.118665 8.118668 l -2,0.213629 c -5.208906,0.556387 -4.993843,0.486637 -5.997248,1.94504 -3.889373,5.653003 -6.42792,14.124823 -5.982586,19.965493 0.196724,2.58006 2.287316,9.95916 3.228528,11.39563 0.293764,0.44834 1.608983,1.61006 2.922711,2.58161 1.509798,1.11655 2.388595,1.98957 2.388595,2.37289 0,0.79229 -3.203661,4.80473 -6.717914,8.41388 l -2.793318,2.86875 -1.903786,-1.05462 c -2.240476,-1.24114 -2.872896,-1.12787 -3.146518,0.56354 -0.492605,3.04508 -0.64473,3.42894 -1.447565,3.65264 -0.952358,0.26537 -14.02864,0.31065 -14.710899,0.0509 z m 48.018141,-0.38862 C 84.165088,148.16508 84.16,147.96503 84.16,122.94115 c 0,-19.69493 -0.08762,-25.328408 -0.4,-25.719083 -0.69145,-0.864742 -2.459798,-1.222073 -6.04775,-1.222073 H 74.24 v -8 -7.999999 h 19.36 19.36 l 0.005,11.119999 c 0.005,12.472956 0.0427,12.719996 1.92474,12.719996 1.60096,0 2.33662,-1.47873 2.10442,-4.230102 -0.23233,-2.753034 0.0348,-2.969894 3.65772,-2.969894 3.28683,0 3.51222,0.178819 3.50285,2.778963 -0.0139,3.861433 -1.62444,8.178183 -3.74619,10.041103 -2.09836,1.84239 -3.5293,2.37488 -6.32825,2.35494 -5.98691,-0.0427 -8.58922,-3.17232 -10.45531,-12.57405 -1.09357,-5.509657 -1.66957,-6.920956 -2.82468,-6.920956 H 100 L 99.84,120.2287 c -0.150374,26.22957 -0.194336,27.94308 -0.730714,28.48 -0.5035,0.50401 -1.339859,0.58285 -7.101859,0.66943 -6.233485,0.0937 -6.561139,0.0682 -7.189286,-0.56 z M 37.181437,73.134162 C 34.05913,66.627096 28.692,60.799996 25.82089,60.799996 c -0.498668,0 -1.866518,0.949053 -3.932748,2.728646 -5.121881,4.411357 -9.388447,6.188169 -13.3336726,5.552809 C 4.8429104,68.483723 2.484484,67.447397 1.007502,65.765208 0.09656449,64.727708 0,64.416584 0,62.519129 0,59.60581 1.0731775,54.632518 2.5348574,50.77216 3.9520186,47.029376 4.0395936,46.56112 4.4836483,40.352173 4.8283789,35.53202 4.7712938,35.742039 7.3500653,29.806509 7.9741933,28.36996 8.3025958,27.174218 8.1929683,26.737427 8.0941872,26.343851 7.1319421,24.882922 6.0546461,23.490917 2.7614967,19.235744 2.72,19.114651 2.72,13.759999 c 0,-3.9080781 0.1125726,-4.9978799 0.7136512,-6.9087735 0.9432,-2.9985333 1.7625037,-4.0371582 3.0833517,-3.9087406 1.1121689,0.108129 0.9747059,-0.1226605 5.1129841,8.5842981 2.134691,4.491403 3.517093,6.393216 4.647141,6.393216 1.041606,0 1.381774,-1.09713 1.629262,-5.254789 L 18.137077,8.7897994 19.963696,5.2187846 C 22.077258,1.0868012 22.852616,0 23.68694,0 c 1.244379,0 2.816215,3.1490169 4.919894,9.8565184 0.698196,2.2261726 0.83336,3.2629496 0.834362,6.3999996 0.0017,5.414263 -0.01523,5.393577 5.983934,7.300401 2.601942,0.827024 5.730102,1.915757 6.951462,2.419405 3.437792,1.417632 7.788154,4.530082 14.423408,10.319178 7.166518,6.252607 8.744291,7.188825 12.513795,7.425417 C 73.705958,43.996592 73.28,43.4248 73.28,49.045002 c 0,4.385078 -0.0827,5.121151 -0.826278,7.353903 l -0.826279,2.481091 h -3.715229 -3.715228 l 2.861507,2.083946 c 1.57383,1.146169 2.909443,2.225983 2.968035,2.399583 0.05859,0.1736 -0.352317,1.692919 -0.913123,3.376266 -0.560807,1.683344 -0.967498,3.112777 -0.903757,3.176518 0.06374,0.06374 0.978646,-0.532822 2.033123,-1.325699 C 73.550912,66.103173 73.28,65.871426 73.28,71.188738 v 4.651257 H 55.879894 38.479789 Z m 11.521529,-5.089085 c 1.354634,-0.992793 2.629911,-1.805081 2.833952,-1.805081 0.204042,0 0.895706,0.404137 1.537034,0.898083 0.641325,0.493945 1.914877,1.436947 2.830112,2.095555 l 1.664064,1.197475 -1.104064,-3.278432 C 55.856829,65.349541 55.36,63.715733 55.36,63.521996 c 0,-0.193741 1.306237,-1.281447 2.902749,-2.417126 l 2.902749,-2.064874 -3.679677,-0.08996 -3.679677,-0.08995 -1.022886,-3.110045 c -0.562586,-1.710525 -1.120144,-3.218022 -1.239021,-3.349996 -0.118877,-0.131972 -0.677523,1.267462 -1.24144,3.109855 l -1.025303,3.349808 -3.713699,0.09014 -3.713699,0.09014 2.657286,1.92 c 1.461511,1.056 2.785063,2.007805 2.941229,2.115123 0.156167,0.107318 -0.221225,1.808105 -0.838649,3.779523 -0.617424,1.971421 -0.953245,3.451901 -0.746276,3.289958 0.206973,-0.161942 1.48465,-1.106729 2.83928,-2.099523 z M 74.24,71.012741 v -4.827254 l 1.68,1.212896 c 0.924,0.667091 2.148,1.560444 2.72,1.985232 0.572,0.424787 1.037456,0.719251 1.034349,0.654361 -0.0032,-0.06489 -0.435111,-1.478873 -0.96,-3.142185 C 78.189456,65.232479 77.76,63.698677 77.76,63.487346 c 0,-0.211334 1.31273,-1.329728 2.917181,-2.485318 L 83.594358,58.90095 79.825722,58.81047 76.057085,58.71999 75.148541,56.014464 C 74.31903,53.544284 74.24,52.91103 74.24,48.73447 v -4.574473 h 7.398931 c 8.475235,0 12.623824,0.475427 17.063722,1.955498 7.209407,2.403302 11.431867,6.813679 13.341337,13.935077 0.52295,1.950352 0.70857,3.806925 0.83316,8.333321 0.0882,3.203142 0.0681,6.191142 -0.0445,6.64 l -0.20483,0.816102 H 93.433904 74.24 Z m 19.909818,-3.29273 2.46982,-1.81015 2.808784,2.059795 c 1.544838,1.13289 2.838488,2.030096 2.874788,1.993795 0.0363,-0.0363 -0.35907,-1.42182 -0.87861,-3.078934 -0.51953,-1.657113 -0.9446,-3.18584 -0.9446,-3.397171 0,-0.211334 1.31273,-1.329728 2.91718,-2.485318 l 2.91718,-2.101078 -3.78578,-0.09048 -3.785777,-0.09048 -0.971401,-3.11439 c -0.534272,-1.712915 -1.048781,-3.116915 -1.143354,-3.12 -0.09457,-0.0032 -0.643952,1.43439 -1.220838,3.19439 l -1.048887,3.2 H 90.63249 86.906656 l 2.946672,2.135165 C 91.473997,62.189503 92.8,63.314489 92.8,63.515132 c 0,0.200646 -0.432,1.642832 -0.96,3.204864 -1.071094,3.168719 -1.145542,3.58406 -0.56,3.124265 0.22,-0.172758 1.511418,-1.128669 2.869818,-2.12425 z"
       id="path3798"
       inkscape:connector-curvature="0" />
    <path
       style="fill:#f36161;stroke-width:0.31999999"
       d="m 36.8,149.20675 c -1.224086,-0.46597 -1.269158,-2.05119 -0.123328,-4.3374 0.46017,-0.91815 2.121533,-3.63168 3.691914,-6.03007 l 2.855241,-4.36072 0.644295,-3.79928 c 0.354361,-2.08961 0.961001,-4.80729 1.348086,-6.03929 0.648314,-2.06342 0.697706,-2.79496 0.626598,-9.28 C 45.732797,105.32707 45.49175,103.61485 42.5712,92.121037 41.15704,86.555613 40,81.551614 40,81.001038 v -1.001043 h 16.48 16.48 v 8.118665 8.118668 l -2,0.213629 c -5.208906,0.556387 -4.993843,0.486637 -5.997248,1.94504 -3.889373,5.653003 -6.42792,14.124823 -5.982586,19.965493 0.196724,2.58006 2.287316,9.95916 3.228528,11.39563 0.293764,0.44834 1.608983,1.61006 2.922711,2.58161 1.509798,1.11655 2.388595,1.98957 2.388595,2.37289 0,0.79229 -3.203661,4.80473 -6.717914,8.41388 l -2.793318,2.86875 -1.903786,-1.05462 c -2.240476,-1.24114 -2.872896,-1.12787 -3.146518,0.56354 -0.492605,3.04508 -0.64473,3.42894 -1.447565,3.65264 -0.952358,0.26537 -14.02864,0.31065 -14.710899,0.0509 z m 48.018141,-0.38862 C 84.165088,148.16508 84.16,147.96503 84.16,122.94115 c 0,-19.69493 -0.08762,-25.328408 -0.4,-25.719083 -0.69145,-0.864742 -2.459798,-1.222073 -6.04775,-1.222073 H 74.24 v -8 -7.999999 h 19.36 19.36 l 0.005,11.119999 c 0.005,12.472956 0.0427,12.719996 1.92474,12.719996 1.60096,0 2.33662,-1.47873 2.10442,-4.230102 -0.23233,-2.753034 0.0348,-2.969894 3.65772,-2.969894 3.28683,0 3.51222,0.178819 3.50285,2.778963 -0.0139,3.861433 -1.62444,8.178183 -3.74619,10.041103 -2.09836,1.84239 -3.5293,2.37488 -6.32825,2.35494 -5.98691,-0.0427 -8.58922,-3.17232 -10.45531,-12.57405 -1.09357,-5.509657 -1.66957,-6.920956 -2.82468,-6.920956 H 100 L 99.84,120.2287 c -0.150374,26.22957 -0.194336,27.94308 -0.730714,28.48 -0.5035,0.50401 -1.339859,0.58285 -7.101859,0.66943 -6.233485,0.0937 -6.561139,0.0682 -7.189286,-0.56 z M 37.494259,73.46891 C 34.352358,66.480786 27.828429,59.729698 25.227834,60.775369 24.816525,60.940751 23.472,61.963733 22.24,63.048665 19.343817,65.599119 17.759941,66.686191 15.113459,67.939871 13.215286,68.839061 12.637552,68.95965 10.24,68.95709 5.5778426,68.952111 1.1329177,66.94316 0.31751729,64.472472 -0.32935933,62.512418 0.52575098,56.740387 2.1132026,52.35152 3.5871526,48.276454 4.094921,45.937514 4.3129229,42.218916 4.6342467,36.737895 5.0097827,35.049665 6.7410624,31.303174 7.6094781,29.423921 8.32,27.608016 8.32,27.26783 8.32,26.594503 7.4974723,25.284747 5.4400086,22.681861 2.8550884,19.411691 2.719708,18.967242 2.7223887,13.759999 2.7250063,8.6753834 3.196975,6.3369465 4.6799453,4.0610013 5.363519,3.0119069 5.6167955,2.8558014 6.497113,2.9410014 c 1.1359027,0.1099364 0.9824208,-0.1467935 5.132874,8.5857816 2.134691,4.491403 3.517093,6.393216 4.647141,6.393216 1.04066,0 1.381413,-1.095648 1.632685,-5.249689 C 18.138788,8.8848669 18.177465,8.7333389 19.673641,5.7599996 21.630752,1.8706465 22.920763,0 23.645777,0 c 1.169295,0 2.220476,1.8798109 4.223886,7.5535118 1.275222,3.6114572 1.353983,4.0466142 1.537213,8.4931612 0.164103,3.982396 0.284374,4.787464 0.800357,5.357388 0.38237,0.422344 2.611173,1.322097 6.018793,2.429746 9.229712,3.000124 11.53478,4.458366 22.973974,14.53389 4.630755,4.078719 6.751686,5.200364 10.169648,5.378162 4.188522,0.217879 3.7776,-0.500287 3.570154,6.239555 -0.138282,4.492643 -0.312772,6.208176 -0.750084,7.374582 l -0.569878,1.52 h -3.723674 -3.723673 l 2.873753,2.091683 c 1.580564,1.150426 2.92169,2.230237 2.980282,2.399581 0.05859,0.169347 -0.352317,1.685184 -0.913123,3.368531 -0.560807,1.683344 -0.967226,3.113052 -0.903149,3.177126 0.06407,0.06407 1.050976,-0.589373 2.19312,-1.452106 1.142144,-0.862732 2.184624,-1.572252 2.316624,-1.57671 0.132,-0.0045 0.24,2.007894 0.24,4.471894 v 4.48 l -17.2,-3.2e-4 -17.2,-3.2e-4 -1.065741,-2.370387 z M 48.48,68.315131 c 1.232,-0.901459 2.424259,-1.748275 2.649466,-1.881811 0.257235,-0.152531 1.496259,0.539956 3.332662,1.862611 1.607757,1.157975 2.970413,2.058189 3.028128,2.000474 0.05771,-0.05771 -0.394813,-1.588896 -1.005616,-3.402627 -0.610803,-1.813731 -1.037322,-3.416179 -0.947821,-3.560995 0.0895,-0.144816 1.41833,-1.169936 2.952954,-2.278045 L 61.28,59.039996 57.584902,58.950406 53.889808,58.860816 52.828912,55.59041 c -0.583491,-1.798723 -1.161098,-3.379606 -1.283568,-3.513072 -0.122474,-0.133466 -0.703043,1.342534 -1.290157,3.28 l -1.067485,3.522665 H 45.34584 41.503974 l 1.408013,1.014518 c 0.774407,0.557988 2.149626,1.559901 3.056042,2.226477 l 1.648032,1.211958 -1.086195,3.453523 c -0.597408,1.899437 -1.087021,3.498023 -1.088029,3.55241 -0.0029,0.158457 0.652275,-0.277987 3.038163,-2.023751 z m 25.76,2.709696 v -4.83934 l 1.68,1.212896 c 0.924,0.667091 2.148,1.560444 2.72,1.985232 0.572,0.424787 1.037456,0.719251 1.034349,0.654361 -0.0032,-0.06489 -0.435111,-1.478873 -0.96,-3.142185 C 78.189456,65.232479 77.76,63.698677 77.76,63.487346 c 0,-0.211334 1.31273,-1.329728 2.917181,-2.485318 L 83.594358,58.90095 79.825722,58.81047 76.057085,58.71999 75.148541,56.014464 C 74.31769,53.540297 74.24,52.91464 74.24,48.69783 v -4.61111 l 8.72,0.162336 c 7.085354,0.131907 9.259885,0.281571 11.6,0.798381 10.17961,2.248153 15.56732,7.07094 17.59776,15.752559 0.37495,1.603168 0.61482,4.314736 0.72248,8.167036 0.14688,5.255875 0.11068,5.80896 -0.40845,6.24 -0.48547,0.403088 -3.35166,0.486566 -19.400705,0.565049 L 74.24,75.864168 Z m 19.909818,-3.304816 2.46982,-1.81015 2.808784,2.059795 c 1.544838,1.13289 2.838488,2.030096 2.874788,1.993795 0.0363,-0.0363 -0.35907,-1.42182 -0.87861,-3.078934 -0.51953,-1.657113 -0.9446,-3.18584 -0.9446,-3.397171 0,-0.211334 1.31273,-1.329728 2.91718,-2.485318 l 2.91718,-2.101078 -3.78578,-0.09048 -3.785777,-0.09048 -0.971401,-3.11439 c -0.534272,-1.712915 -1.048781,-3.116915 -1.143354,-3.12 -0.09457,-0.0032 -0.643952,1.43439 -1.220838,3.19439 l -1.048887,3.2 h -3.732915 -3.732915 l 2.873753,2.089802 c 1.580564,1.149391 2.913095,2.265391 2.961181,2.479999 0.04809,0.214608 -0.347913,1.67721 -0.88,3.250227 -1.07855,3.188541 -1.153625,3.604547 -0.567427,3.144237 0.22,-0.172758 1.511418,-1.128669 2.869818,-2.12425 z"
       id="path3796"
       inkscape:connector-curvature="0" />
    <path
       style="fill:#6060c5;stroke-width:0.31999999"
       d="m 37.28,149.22379 c -2.475082,-0.66776 -1.898698,-2.64842 2.889811,-9.93043 3.171917,-4.82361 3.198554,-4.88487 3.797805,-8.73337 0.287754,-1.848 0.90239,-4.656 1.365859,-6.24 0.834003,-2.85036 0.840576,-2.95409 0.638749,-10.08 -0.11216,-3.96 -0.346877,-8.32088 -0.521597,-9.69084 C 45.27591,103.17918 43.978045,97.462816 42.56648,91.846106 41.154915,86.229399 40,81.266279 40,80.816951 v -0.816956 h 16.48 16.48 v 8.101615 8.101619 l -3.39095,0.351677 c -4.098692,0.425081 -4.215572,0.512377 -6.450324,4.817884 -2.935692,5.65595 -4.238726,10.50029 -4.238726,15.75848 0,2.40815 0.203843,3.49676 1.394099,7.44502 0.766755,2.54345 1.607223,4.92873 1.867703,5.30061 0.26048,0.37189 1.397136,1.37541 2.5259,2.23005 2.783696,2.10766 3.046698,2.45187 2.563386,3.35495 -0.583155,1.08964 -3.269018,4.19637 -6.475402,7.49009 l -2.873724,2.952 -1.686855,-0.952 c -0.927769,-0.5236 -1.930301,-0.952 -2.227843,-0.952 -0.642493,0 -1.059334,0.91136 -1.317267,2.88 -0.328663,2.50846 0.03529,2.39314 -7.758154,2.45823 -3.834515,0.032 -7.259843,-0.0195 -7.611843,-0.11443 z m 48.061827,0.0162 c -0.317993,-0.0957 -0.713993,-0.53121 -0.88,-0.96784 C 84.282038,147.79931 84.16,137.33285 84.16,122.38654 V 97.294749 L 83.295664,96.72737 c -0.687245,-0.451127 -1.703491,-0.588976 -4.96,-0.672807 L 74.24,95.949133 v -7.974569 -7.974569 h 19.34847 19.34847 l 0.0915,11.548559 0.0915,11.548556 0.75545,0.61144 c 0.96365,0.77996 1.10461,0.76993 2.17988,-0.15498 0.83644,-0.71947 0.89502,-0.93802 0.95638,-3.567849 0.0444,-1.904592 0.20029,-2.889017 0.48683,-3.07503 0.2318,-0.15048 1.71746,-0.236947 3.30146,-0.19215 l 2.88,0.08145 0.3019,1.222351 c 0.43366,1.755872 -0.23775,5.880158 -1.31562,8.081458 -1.8163,3.70937 -4.20804,5.3176 -8.20872,5.51963 -6.30628,0.31845 -9.09298,-2.96917 -10.79882,-12.739952 -0.73756,-4.224623 -1.69127,-6.511305 -2.78017,-6.665932 -0.41898,-0.05949 -0.79804,0.09719 -0.904157,0.373731 -0.100496,0.261895 -0.207853,12.763993 -0.23857,27.782443 -0.03072,15.01845 -0.174976,27.54714 -0.320585,27.84153 -0.145607,0.29439 -0.475031,0.61595 -0.732052,0.71458 -0.643651,0.24699 -12.625606,0.52559 -13.341379,0.31021 z M 37.494259,73.46891 C 34.352358,66.480786 27.828429,59.729698 25.227834,60.775369 24.816525,60.940751 23.472,61.963733 22.24,63.048665 19.343817,65.599119 17.759941,66.686191 15.113459,67.939871 13.215286,68.839061 12.637552,68.95965 10.24,68.95709 5.5778426,68.952111 1.1329177,66.94316 0.31751729,64.472472 -0.32935933,62.512418 0.52575098,56.740387 2.1132026,52.35152 3.5871526,48.276454 4.094921,45.937514 4.3129229,42.218916 4.6342467,36.737895 5.0097827,35.049665 6.7410624,31.303174 7.6094781,29.423921 8.32,27.608016 8.32,27.26783 8.32,26.594503 7.4974723,25.284747 5.4400086,22.681861 2.8550884,19.411691 2.719708,18.967242 2.7223887,13.759999 2.7250063,8.6753834 3.196975,6.3369465 4.6799453,4.0610013 5.363519,3.0119069 5.6167955,2.8558014 6.497113,2.9410014 c 1.1359027,0.1099364 0.9824208,-0.1467935 5.132874,8.5857816 2.134691,4.491403 3.517093,6.393216 4.647141,6.393216 1.04066,0 1.381413,-1.095648 1.632685,-5.249689 C 18.138788,8.8848669 18.177465,8.7333389 19.673641,5.7599996 21.630752,1.8706465 22.920763,0 23.645777,0 c 1.169295,0 2.220476,1.8798109 4.223886,7.5535118 1.275222,3.6114572 1.353983,4.0466142 1.537213,8.4931612 0.164103,3.982396 0.284374,4.787464 0.800357,5.357388 0.38237,0.422344 2.611173,1.322097 6.018793,2.429746 9.229712,3.000124 11.53478,4.458366 22.973974,14.53389 4.630755,4.078719 6.751686,5.200364 10.169648,5.378162 4.188522,0.217879 3.7776,-0.500287 3.570154,6.239555 -0.138282,4.492643 -0.312772,6.208176 -0.750084,7.374582 l -0.569878,1.52 h -3.723674 -3.723673 l 2.873753,2.091683 c 1.580564,1.150426 2.92169,2.230237 2.980282,2.399581 0.05859,0.169347 -0.352317,1.685184 -0.913123,3.368531 -0.560807,1.683344 -0.967226,3.113052 -0.903149,3.177126 0.06407,0.06407 1.050976,-0.589373 2.19312,-1.452106 1.142144,-0.862732 2.184624,-1.572252 2.316624,-1.57671 0.132,-0.0045 0.24,2.007894 0.24,4.471894 v 4.48 l -17.2,-3.2e-4 -17.2,-3.2e-4 -1.065741,-2.370387 z M 48.48,68.315131 c 1.232,-0.901459 2.424259,-1.748275 2.649466,-1.881811 0.257235,-0.152531 1.496259,0.539956 3.332662,1.862611 1.607757,1.157975 2.970413,2.058189 3.028128,2.000474 0.05771,-0.05771 -0.394813,-1.588896 -1.005616,-3.402627 -0.610803,-1.813731 -1.037322,-3.416179 -0.947821,-3.560995 0.0895,-0.144816 1.41833,-1.169936 2.952954,-2.278045 L 61.28,59.039996 57.584902,58.950406 53.889808,58.860816 52.828912,55.59041 c -0.583491,-1.798723 -1.161098,-3.379606 -1.283568,-3.513072 -0.122474,-0.133466 -0.703043,1.342534 -1.290157,3.28 l -1.067485,3.522665 H 45.34584 41.503974 l 1.408013,1.014518 c 0.774407,0.557988 2.149626,1.559901 3.056042,2.226477 l 1.648032,1.211958 -1.086195,3.453523 c -0.597408,1.899437 -1.087021,3.498023 -1.088029,3.55241 -0.0029,0.158457 0.652275,-0.277987 3.038163,-2.023751 z m 25.76,2.709696 v -4.83934 l 1.68,1.212896 c 0.924,0.667091 2.148,1.560444 2.72,1.985232 0.572,0.424787 1.037456,0.719251 1.034349,0.654361 -0.0032,-0.06489 -0.435111,-1.478873 -0.96,-3.142185 C 78.189456,65.232479 77.76,63.698677 77.76,63.487346 c 0,-0.211334 1.31273,-1.329728 2.917181,-2.485318 L 83.594358,58.90095 79.825722,58.81047 76.057085,58.71999 75.148541,56.014464 C 74.31769,53.540297 74.24,52.91464 74.24,48.69783 v -4.61111 l 8.72,0.162336 c 7.085354,0.131907 9.259885,0.281571 11.6,0.798381 10.17961,2.248153 15.56732,7.07094 17.59776,15.752559 0.37495,1.603168 0.61482,4.314736 0.72248,8.167036 0.14688,5.255875 0.11068,5.80896 -0.40845,6.24 -0.48547,0.403088 -3.35166,0.486566 -19.400705,0.565049 L 74.24,75.864168 Z m 19.909818,-3.304816 2.46982,-1.81015 2.808784,2.059795 c 1.544838,1.13289 2.838488,2.030096 2.874788,1.993795 0.0363,-0.0363 -0.35907,-1.42182 -0.87861,-3.078934 -0.51953,-1.657113 -0.9446,-3.18584 -0.9446,-3.397171 0,-0.211334 1.31273,-1.329728 2.91718,-2.485318 l 2.91718,-2.101078 -3.78578,-0.09048 -3.785777,-0.09048 -0.971401,-3.11439 c -0.534272,-1.712915 -1.048781,-3.116915 -1.143354,-3.12 -0.09457,-0.0032 -0.643952,1.43439 -1.220838,3.19439 l -1.048887,3.2 h -3.732915 -3.732915 l 2.873753,2.089802 c 1.580564,1.149391 2.913095,2.265391 2.961181,2.479999 0.04809,0.214608 -0.347913,1.67721 -0.88,3.250227 -1.07855,3.188541 -1.153625,3.604547 -0.567427,3.144237 0.22,-0.172758 1.511418,-1.128669 2.869818,-2.12425 z"
       id="path3794"
       inkscape:connector-curvature="0" />
    <path
       style="fill:#fd0000;stroke-width:0.31999999"
       d="m 37.28,149.22379 c -2.475082,-0.66776 -1.898698,-2.64842 2.889811,-9.93043 3.171917,-4.82361 3.198554,-4.88487 3.797805,-8.73337 0.287754,-1.848 0.90239,-4.656 1.365859,-6.24 0.834003,-2.85036 0.840576,-2.95409 0.638749,-10.08 -0.11216,-3.96 -0.346877,-8.32088 -0.521597,-9.69084 C 45.27591,103.17918 43.978045,97.462816 42.56648,91.846106 41.154915,86.229399 40,81.266279 40,80.816951 v -0.816956 h 16.48 16.48 v 8.101615 8.101619 l -3.39095,0.351677 c -4.098692,0.425081 -4.215572,0.512377 -6.450324,4.817884 -2.935692,5.65595 -4.238726,10.50029 -4.238726,15.75848 0,2.40815 0.203843,3.49676 1.394099,7.44502 0.766755,2.54345 1.607223,4.92873 1.867703,5.30061 0.26048,0.37189 1.397136,1.37541 2.5259,2.23005 2.783696,2.10766 3.046698,2.45187 2.563386,3.35495 -0.583155,1.08964 -3.269018,4.19637 -6.475402,7.49009 l -2.873724,2.952 -1.686855,-0.952 c -0.927769,-0.5236 -1.930301,-0.952 -2.227843,-0.952 -0.642493,0 -1.059334,0.91136 -1.317267,2.88 -0.328663,2.50846 0.03529,2.39314 -7.758154,2.45823 -3.834515,0.032 -7.259843,-0.0195 -7.611843,-0.11443 z m 48.061827,0.0162 c -0.317993,-0.0957 -0.713993,-0.53121 -0.88,-0.96784 C 84.282038,147.79931 84.16,137.33285 84.16,122.38654 V 97.294749 L 83.295664,96.72737 c -0.687245,-0.451127 -1.703491,-0.588976 -4.96,-0.672807 L 74.24,95.949133 v -7.974569 -7.974569 h 19.34847 19.34847 l 0.0915,11.548559 0.0915,11.548556 0.75545,0.61144 c 0.96365,0.77996 1.10461,0.76993 2.17988,-0.15498 0.83644,-0.71947 0.89502,-0.93802 0.95638,-3.567849 0.0444,-1.904592 0.20029,-2.889017 0.48683,-3.07503 0.2318,-0.15048 1.71746,-0.236947 3.30146,-0.19215 l 2.88,0.08145 0.3019,1.222351 c 0.43366,1.755872 -0.23775,5.880158 -1.31562,8.081458 -1.8163,3.70937 -4.20804,5.3176 -8.20872,5.51963 -6.30628,0.31845 -9.09298,-2.96917 -10.79882,-12.739952 -0.73756,-4.224623 -1.69127,-6.511305 -2.78017,-6.665932 -0.41898,-0.05949 -0.79804,0.09719 -0.904157,0.373731 -0.100496,0.261895 -0.207853,12.763993 -0.23857,27.782443 -0.03072,15.01845 -0.174976,27.54714 -0.320585,27.84153 -0.145607,0.29439 -0.475031,0.61595 -0.732052,0.71458 -0.643651,0.24699 -12.625606,0.52559 -13.341379,0.31021 z M 37.450125,73.199995 c -3.342288,-6.980787 -9.299932,-13.268809 -11.943114,-12.60541 -0.39395,0.09887 -2.082188,1.348233 -3.751641,2.776355 -3.587946,3.06928 -6.128843,4.568911 -9.031045,5.330102 -1.854394,0.486368 -2.414534,0.50632 -4.444118,0.158285 C 5.3430602,68.355663 2.6179586,67.140418 1.2418126,65.720597 0.20326392,64.649087 0.17286379,64.542594 0.22195568,62.148079 0.28289988,59.175455 1.2616342,54.514348 2.4015723,51.767917 c 0.4583756,-1.104356 0.8913963,-2.29592 0.962268,-2.64792 0.070872,-0.352 0.2663949,-1.288 0.4344954,-2.08 0.1681008,-0.792 0.4023801,-2.952 0.5206208,-4.8 C 4.6812518,36.577646 5.0371888,34.966974 6.7358474,31.303174 7.6071312,29.423921 8.32,27.608016 8.32,27.26783 8.32,26.594503 7.4974723,25.284747 5.4400086,22.681861 2.8560044,19.41285 2.72,18.966744 2.72,13.759999 2.72,9.8539533 2.8327171,8.7616788 3.4325888,6.8547237 4.2899667,4.1291722 5.38492,2.7941482 6.6440563,2.9391361 c 0.9592579,0.1104572 0.9460269,0.087668 4.9859307,8.5876469 2.134691,4.491403 3.517093,6.393216 4.647141,6.393216 1.050593,0 1.424729,-1.181066 1.628772,-5.14168 C 18.090539,9.194345 18.144353,8.9778711 19.598257,5.9705746 21.466368,2.1065191 22.894402,0 23.645777,0 c 1.169295,0 2.220476,1.8798109 4.223886,7.5535118 1.275222,3.6114572 1.353983,4.0466142 1.537213,8.4931612 0.164103,3.982396 0.284374,4.787464 0.800357,5.357388 0.381728,0.421635 2.597132,1.317533 5.965583,2.41245 8.823782,2.868176 11.699133,4.64648 21.747184,13.449861 6.162432,5.399084 7.776611,6.28423 11.940528,6.54766 L 72.8,43.999997 l 0.08798,5.414409 c 0.07796,4.797344 0.01117,5.645258 -0.58609,7.44 l -0.674073,2.02559 h -3.727664 -3.727664 l 2.873753,2.091683 c 1.580564,1.150426 2.92169,2.230237 2.980282,2.399581 0.05859,0.169347 -0.352317,1.685184 -0.913123,3.368531 -0.560807,1.683344 -0.967226,3.113052 -0.903149,3.177126 0.06407,0.06407 1.050976,-0.589373 2.19312,-1.452106 1.142144,-0.862732 2.184624,-1.572252 2.316624,-1.57671 0.132,-0.0045 0.24,2.007894 0.24,4.471894 v 4.48 H 55.837056 38.714115 Z m 11.189318,-4.896931 2.856931,-2.096931 2.907808,2.134272 c 1.599293,1.17385 2.988186,2.053891 3.086426,1.955648 0.09824,-0.09824 -0.33113,-1.700893 -0.954163,-3.561446 l -1.132784,-3.382829 3.035392,-2.155891 3.035392,-2.155891 -3.756653,-0.16 -3.756656,-0.16 -1.12967,-3.44 c -0.621319,-1.892 -1.211479,-3.439999 -1.311466,-3.439999 -0.09999,0 -0.690147,1.547999 -1.311466,3.439999 l -1.12967,3.44 -3.744096,0.16 -3.744093,0.16 2.878954,2.08 c 1.583427,1.144 2.881526,2.258278 2.884665,2.476173 0.0032,0.217897 -0.426294,1.74479 -0.954294,3.393097 -1.004621,3.136224 -1.068102,3.410729 -0.788746,3.410729 0.09419,0 1.456877,-0.943619 3.028189,-2.096931 z m 25.600557,2.724 v -4.841577 l 1.68,1.212896 c 0.924,0.667091 2.148,1.560444 2.72,1.985232 0.572,0.424787 1.038394,0.719251 1.036429,0.654361 -0.002,-0.06489 -0.432359,-1.485981 -0.956429,-3.15798 -0.52407,-1.672 -0.954464,-3.205802 -0.956429,-3.408445 -0.0019,-0.202646 1.309159,-1.313933 2.91361,-2.469523 l 2.917177,-2.101078 -3.783187,-0.09048 -3.783187,-0.09048 -0.880298,-2.72 C 74.358538,53.561644 74.265968,52.803984 74.253693,48.682931 L 74.24,44.085863 82.8,44.255939 c 5.853203,0.116295 9.26832,0.323117 10.8,0.654055 10.95307,2.366547 16.01529,6.686057 18.43466,15.730002 0.57055,2.132813 0.69154,3.531565 0.72508,8.382271 0.0304,4.391965 -0.0619,5.924893 -0.37551,6.24 -0.33046,0.332026 -4.28604,0.437078 -19.279996,0.512051 L 74.24,75.868638 Z m 19.909818,-3.307053 2.46982,-1.81015 2.808784,2.059795 c 1.544838,1.13289 2.839998,2.028586 2.878148,1.990435 0.0382,-0.03815 -0.35562,-1.430774 -0.87503,-3.094726 -0.51942,-1.663952 -0.946,-3.191171 -0.94797,-3.393814 -0.002,-0.202646 1.30916,-1.313933 2.91361,-2.469523 l 2.91718,-2.101078 -3.79301,-0.09048 -3.793008,-0.09048 -0.961347,-3.12 c -0.528742,-1.716 -1.039997,-3.12 -1.136125,-3.12 -0.09612,0 -0.646774,1.44 -1.22366,3.2 l -1.048887,3.2 h -3.732915 -3.732915 l 2.873753,2.089802 c 1.580564,1.149391 2.913095,2.265391 2.961181,2.479999 0.04809,0.214608 -0.347913,1.67721 -0.88,3.250227 -1.07855,3.188541 -1.153625,3.604547 -0.567427,3.144237 0.22,-0.172758 1.511418,-1.128669 2.869818,-2.12425 z"
       id="path3792"
       inkscape:connector-curvature="0" />
    <path
       style="fill:#1203bb;stroke-width:0.31999999"
       d="m 118.4,97.119994 c 0,-0.266666 0.28444,-0.48 0.64,-0.48 0.35556,0 0.64,0.213334 0.64,0.48 0,0.266665 -0.28444,0.479999 -0.64,0.479999 -0.35556,0 -0.64,-0.213334 -0.64,-0.479999 z m 3.2,0 c 0,-0.266666 0.28444,-0.48 0.64,-0.48 0.35556,0 0.64,0.213334 0.64,0.48 0,0.266665 -0.28444,0.479999 -0.64,0.479999 -0.35556,0 -0.64,-0.213334 -0.64,-0.479999 z M 37.450125,73.199995 c -3.342288,-6.980787 -9.299932,-13.268809 -11.943114,-12.60541 -0.39395,0.09887 -2.082188,1.348233 -3.751641,2.776355 -3.587946,3.06928 -6.128843,4.568911 -9.031045,5.330102 -1.854394,0.486368 -2.414534,0.50632 -4.444118,0.158285 C 5.3430602,68.355663 2.6179586,67.140418 1.2418126,65.720597 0.20326392,64.649087 0.17286379,64.542594 0.22195568,62.148079 0.28289988,59.175455 1.2616342,54.514348 2.4015723,51.767917 c 0.4583756,-1.104356 0.8913963,-2.29592 0.962268,-2.64792 0.070872,-0.352 0.2663949,-1.288 0.4344954,-2.08 0.1681008,-0.792 0.4023801,-2.952 0.5206208,-4.8 C 4.6812518,36.577646 5.0371888,34.966974 6.7358474,31.303174 7.6071312,29.423921 8.32,27.608016 8.32,27.26783 8.32,26.594503 7.4974723,25.284747 5.4400086,22.681861 2.8560044,19.41285 2.72,18.966744 2.72,13.759999 2.72,9.8539533 2.8327171,8.7616788 3.4325888,6.8547237 4.2899667,4.1291722 5.38492,2.7941482 6.6440563,2.9391361 c 0.9592579,0.1104572 0.9460269,0.087668 4.9859307,8.5876469 2.134691,4.491403 3.517093,6.393216 4.647141,6.393216 1.050593,0 1.424729,-1.181066 1.628772,-5.14168 C 18.090539,9.194345 18.144353,8.9778711 19.598257,5.9705746 21.466368,2.1065191 22.894402,0 23.645777,0 c 1.169295,0 2.220476,1.8798109 4.223886,7.5535118 1.275222,3.6114572 1.353983,4.0466142 1.537213,8.4931612 0.164103,3.982396 0.284374,4.787464 0.800357,5.357388 0.381728,0.421635 2.597132,1.317533 5.965583,2.41245 8.823782,2.868176 11.699133,4.64648 21.747184,13.449861 6.162432,5.399084 7.704077,6.262912 11.940528,6.54766 l 3.491692,0.23469 -0.123163,5.381926 c 0.07796,4.797344 -0.329907,5.629016 -0.927167,7.423758 l -0.674073,2.02559 h -3.727664 -3.727664 l 2.873753,2.091683 c 1.580564,1.150426 2.92169,2.230237 2.980282,2.399581 0.05859,0.169347 -0.352317,1.685184 -0.913123,3.368531 -0.560807,1.683344 -0.967226,3.113052 -0.903149,3.177126 0.06407,0.06407 1.050976,-0.589373 2.19312,-1.452106 1.142144,-0.862732 2.184624,-1.572252 2.316624,-1.57671 0.132,-0.0045 0.24,2.007894 0.24,4.471894 v 4.48 H 55.837056 38.714115 Z m 11.189318,-4.896931 2.856931,-2.096931 2.907808,2.134272 c 1.599293,1.17385 2.988186,2.053891 3.086426,1.955648 0.09824,-0.09824 -0.33113,-1.700893 -0.954163,-3.561446 l -1.132784,-3.382829 3.035392,-2.155891 3.035392,-2.155891 -3.756653,-0.16 -3.756656,-0.16 -1.12967,-3.44 c -0.621319,-1.892 -1.211479,-3.439999 -1.311466,-3.439999 -0.09999,0 -0.690147,1.547999 -1.311466,3.439999 l -1.12967,3.44 -3.744096,0.16 -3.744093,0.16 2.878954,2.08 c 1.583427,1.144 2.881526,2.258278 2.884665,2.476173 0.0032,0.217897 -0.426294,1.74479 -0.954294,3.393097 -1.004621,3.136224 -1.068102,3.410729 -0.788746,3.410729 0.09419,0 1.456877,-0.943619 3.028189,-2.096931 z m 25.600557,2.724 v -4.841577 l 1.68,1.212896 c 0.924,0.667091 2.148,1.560444 2.72,1.985232 0.572,0.424787 1.038394,0.719251 1.036429,0.654361 -0.002,-0.06489 -0.432359,-1.485981 -0.956429,-3.15798 -0.52407,-1.672 -0.954464,-3.205802 -0.956429,-3.408445 -0.0019,-0.202646 1.309159,-1.313933 2.91361,-2.469523 l 2.917177,-2.101078 -3.783187,-0.09048 -3.783187,-0.09048 -0.880298,-2.72 C 74.358538,53.561644 74.265968,52.803984 74.253693,48.682931 L 74.24,44.085863 82.8,44.255939 c 5.853203,0.116295 9.26832,0.323117 10.8,0.654055 10.95307,2.366547 16.01529,6.686057 18.43466,15.730002 0.57055,2.132813 0.69154,3.531565 0.72508,8.382271 0.0304,4.391965 -0.0619,5.924893 -0.37551,6.24 -0.33046,0.332026 -4.28604,0.437078 -19.279996,0.512051 L 74.24,75.868638 Z m 19.909818,-3.307053 2.46982,-1.81015 2.808784,2.059795 c 1.544838,1.13289 2.839998,2.028586 2.878148,1.990435 0.0382,-0.03815 -0.35562,-1.430774 -0.87503,-3.094726 -0.51942,-1.663952 -0.946,-3.191171 -0.94797,-3.393814 -0.002,-0.202646 1.30916,-1.313933 2.91361,-2.469523 l 2.91718,-2.101078 -3.79301,-0.09048 -3.793008,-0.09048 -0.961347,-3.12 c -0.528742,-1.716 -1.039997,-3.12 -1.136125,-3.12 -0.09612,0 -0.646774,1.44 -1.22366,3.2 l -1.048887,3.2 h -3.732915 -3.732915 l 2.873753,2.089802 c 1.580564,1.149391 2.913095,2.265391 2.961181,2.479999 0.04809,0.214608 -0.347913,1.67721 -0.88,3.250227 -1.07855,3.188541 -1.153625,3.604547 -0.567427,3.144237 0.22,-0.172758 1.511418,-1.128669 2.869818,-2.12425 z"
       id="path3790"
       inkscape:connector-curvature="0"
       sodipodi:nodetypes="ssssssssssscscsssssssssssssssssssscsssccccccscccscscccsscscccccccssscccscssscccccsccccccscsscccsccccscccccccssscccscsccc" />
    <path
       style="fill:#5c0303;stroke-width:0.31999999"
       d="m 118.4,97.119994 c 0,-0.266666 0.28444,-0.48 0.64,-0.48 0.35556,0 0.64,0.213334 0.64,0.48 0,0.266665 -0.28444,0.479999 -0.64,0.479999 -0.35556,0 -0.64,-0.213334 -0.64,-0.479999 z m 3.2,0 c 0,-0.266666 0.28444,-0.48 0.64,-0.48 0.35556,0 0.64,0.213334 0.64,0.48 0,0.266665 -0.28444,0.479999 -0.64,0.479999 -0.35556,0 -0.64,-0.213334 -0.64,-0.479999 z"
       id="path3788"
       inkscape:connector-curvature="0" />
  </g>
</svg>
